<svg width="960" height="400" viewBox="0 0 960 400" fill="none" xmlns="http://www.w3.org/2000/svg">
<rect width="960" height="400" fill="#F5F5F6"/>
<path d="M407.934 47.3C406.494 47.3 405.25 46.9867 404.204 46.36C403.164 45.7333 402.36 44.8567 401.794 43.73C401.234 42.6033 400.954 41.2933 400.954 39.8C400.954 38.3067 401.234 36.9967 401.794 35.87C402.36 34.7433 403.164 33.8667 404.204 33.24C405.25 32.6133 406.494 32.3 407.934 32.3C409.587 32.3 410.974 32.71 412.094 33.53C413.22 34.35 414.014 35.46 414.474 36.86L411.734 37.62C411.467 36.7467 411.017 36.07 410.384 35.59C409.75 35.1033 408.934 34.86 407.934 34.86C407.02 34.86 406.257 35.0633 405.644 35.47C405.037 35.8767 404.58 36.45 404.274 37.19C403.967 37.93 403.814 38.8 403.814 39.8C403.814 40.8 403.967 41.67 404.274 42.41C404.58 43.15 405.037 43.7233 405.644 44.13C406.257 44.5367 407.02 44.74 407.934 44.74C408.934 44.74 409.75 44.4967 410.384 44.01C411.017 43.5233 411.467 42.8467 411.734 41.98L414.474 42.74C414.014 44.14 413.22 45.25 412.094 46.07C410.974 46.89 409.587 47.3 407.934 47.3ZM422.855 47.3C421.415 47.3 420.172 46.9867 419.125 46.36C418.085 45.7333 417.282 44.8567 416.715 43.73C416.155 42.6033 415.875 41.2933 415.875 39.8C415.875 38.3067 416.155 36.9967 416.715 35.87C417.282 34.7433 418.085 33.8667 419.125 33.24C420.172 32.6133 421.415 32.3 422.855 32.3C424.295 32.3 425.535 32.6133 426.575 33.24C427.622 33.8667 428.425 34.7433 428.985 35.87C429.552 36.9967 429.835 38.3067 429.835 39.8C429.835 41.2933 429.552 42.6033 428.985 43.73C428.425 44.8567 427.622 45.7333 426.575 46.36C425.535 46.9867 424.295 47.3 422.855 47.3ZM422.855 44.74C423.769 44.7533 424.529 44.5567 425.135 44.15C425.742 43.7433 426.195 43.1667 426.495 42.42C426.802 41.6733 426.955 40.8 426.955 39.8C426.955 38.8 426.802 37.9333 426.495 37.2C426.195 36.4667 425.742 35.8967 425.135 35.49C424.529 35.0833 423.769 34.8733 422.855 34.86C421.942 34.8467 421.182 35.0433 420.575 35.45C419.969 35.8567 419.512 36.4333 419.205 37.18C418.905 37.9267 418.755 38.8 418.755 39.8C418.755 40.8 418.905 41.6667 419.205 42.4C419.512 43.1333 419.969 43.7033 420.575 44.11C421.182 44.5167 421.942 44.7267 422.855 44.74ZM431.832 47V32.6H434.272L439.032 42.16L443.792 32.6H446.232V47H443.692V38.4L439.512 47H438.552L434.372 38.4V47H431.832ZM449.239 47V32.6H451.959V47H449.239ZM461.137 47.3C459.697 47.3 458.453 46.9867 457.407 46.36C456.367 45.7333 455.563 44.8567 454.997 43.73C454.437 42.6033 454.157 41.2933 454.157 39.8C454.157 38.3067 454.437 36.9967 454.997 35.87C455.563 34.7433 456.367 33.8667 457.407 33.24C458.453 32.6133 459.697 32.3 461.137 32.3C462.79 32.3 464.177 32.71 465.297 33.53C466.423 34.35 467.217 35.46 467.677 36.86L464.937 37.62C464.67 36.7467 464.22 36.07 463.587 35.59C462.953 35.1033 462.137 34.86 461.137 34.86C460.223 34.86 459.46 35.0633 458.847 35.47C458.24 35.8767 457.783 36.45 457.477 37.19C457.17 37.93 457.017 38.8 457.017 39.8C457.017 40.8 457.17 41.67 457.477 42.41C457.783 43.15 458.24 43.7233 458.847 44.13C459.46 44.5367 460.223 44.74 461.137 44.74C462.137 44.74 462.953 44.4967 463.587 44.01C464.22 43.5233 464.67 42.8467 464.937 41.98L467.677 42.74C467.217 44.14 466.423 45.25 465.297 46.07C464.177 46.89 462.79 47.3 461.137 47.3ZM478.502 47.2C477.116 47.2 475.949 46.9133 475.002 46.34C474.056 45.7667 473.369 44.9467 472.942 43.88L475.082 42.7C475.429 43.3667 475.869 43.9 476.402 44.3C476.936 44.7 477.629 44.9 478.482 44.9C479.002 44.9 479.456 44.7733 479.842 44.52C480.242 44.2533 480.442 43.9067 480.442 43.48C480.442 43.08 480.269 42.7867 479.922 42.6C479.589 42.4133 479.122 42.32 478.522 42.32H478.122V40.22H478.402C479.002 40.22 479.442 40.1133 479.722 39.9C480.002 39.6867 480.142 39.42 480.142 39.1C480.142 38.74 479.976 38.48 479.642 38.32C479.322 38.16 478.862 38.08 478.262 38.08C477.769 38.08 477.316 38.1533 476.902 38.3C476.502 38.4467 476.302 38.68 476.302 39C476.302 39.16 476.322 39.28 476.362 39.36C476.402 39.44 476.489 39.56 476.622 39.72L474.582 40.88C474.302 40.64 474.089 40.3533 473.942 40.02C473.809 39.6867 473.742 39.3467 473.742 39C473.742 38.0667 474.136 37.3133 474.922 36.74C475.709 36.1667 476.796 35.88 478.182 35.88C479.169 35.88 479.982 35.98 480.622 36.18C481.276 36.38 481.776 36.66 482.122 37.02C482.616 36.7133 483.182 36.4467 483.822 36.22C484.476 35.9933 485.222 35.88 486.062 35.88C487.209 35.88 488.216 36.12 489.082 36.6C489.962 37.08 490.642 37.7467 491.122 38.6C491.616 39.4533 491.862 40.4333 491.862 41.54C491.862 42.66 491.616 43.6467 491.122 44.5C490.642 45.3533 489.969 46.02 489.102 46.5C488.236 46.9667 487.236 47.2 486.102 47.2C485.382 47.2 484.676 47.0933 483.982 46.88C484.009 44.9467 484.422 43.44 485.222 42.36C486.022 41.2667 487.362 40.52 489.242 40.12C489.002 39.56 488.609 39.1133 488.062 38.78C487.516 38.4467 486.829 38.28 486.002 38.28C485.442 38.28 484.876 38.3667 484.302 38.54C483.742 38.7 483.242 38.9333 482.802 39.24C482.696 40.24 482.016 40.9133 480.762 41.26V41.36C481.562 41.5067 482.202 41.78 482.682 42.18C483.176 42.58 483.422 43.18 483.422 43.98C483.422 44.9533 483.022 45.7333 482.222 46.32C481.422 46.9067 480.182 47.2 478.502 47.2ZM486.262 44.84C487.156 44.84 487.896 44.5867 488.482 44.08C489.082 43.56 489.416 42.82 489.482 41.86C488.629 41.9933 487.922 42.3133 487.362 42.82C486.802 43.3133 486.416 43.9867 486.202 44.84H486.262ZM494.916 47.2C494.449 47.2 493.956 47.1467 493.436 47.04C492.929 46.9467 492.503 46.7867 492.156 46.56L493.176 44.34C493.403 44.4333 493.616 44.5133 493.816 44.58C494.029 44.6333 494.289 44.66 494.596 44.66C495.303 44.66 495.876 44.4 496.316 43.88C496.756 43.3467 496.976 42.6333 496.976 41.74C496.976 40.7133 496.723 39.92 496.216 39.36C495.723 38.8 495.023 38.52 494.116 38.52C493.383 38.52 492.749 38.6267 492.216 38.84C491.683 39.04 491.169 39.28 490.676 39.56L489.356 37.5C490.049 37.0733 490.649 36.7467 491.156 36.52C491.663 36.28 492.169 36.1133 492.676 36.02C493.169 35.9267 493.749 35.88 494.416 35.88C495.563 35.88 496.549 36.1133 497.376 36.58C498.216 37.0333 498.863 37.6867 499.316 38.54C499.783 39.38 500.016 40.38 500.016 41.54C500.016 43.34 499.563 44.7333 498.656 45.72C497.763 46.7067 496.516 47.2 494.916 47.2ZM504.72 41C503.96 41 503.347 40.7933 502.88 40.38C502.413 39.9667 502.18 39.38 502.18 38.62C502.18 37.8867 502.407 37.3133 502.86 36.9C503.327 36.4733 503.947 36.26 504.72 36.26C505.507 36.26 506.133 36.48 506.6 36.92C507.08 37.36 507.32 37.92 507.32 38.6C507.32 39.3733 507.073 39.9667 506.58 40.38C506.1 40.7933 505.48 41 504.72 41ZM504.76 39.46C504.987 39.46 505.173 39.3867 505.32 39.24C505.48 39.08 505.56 38.8733 505.56 38.62C505.56 38.3533 505.48 38.1533 505.32 38.02C505.173 37.8867 504.987 37.82 504.76 37.82C504.533 37.82 504.34 37.8867 504.18 38.02C504.033 38.1533 503.96 38.3533 503.96 38.62C503.96 38.8733 504.027 39.08 504.16 39.24C504.293 39.3867 504.493 39.46 504.76 39.46ZM504.72 47.18C503.96 47.18 503.347 46.9733 502.88 46.56C502.413 46.1467 502.18 45.56 502.18 44.8C502.18 44.0667 502.407 43.4933 502.86 43.08C503.327 42.6533 503.947 42.44 504.72 42.44C505.507 42.44 506.133 42.66 506.6 43.1C507.08 43.54 507.32 44.1 507.32 44.78C507.32 45.5533 507.073 46.1467 506.58 46.56C506.1 46.9733 505.48 47.18 504.72 47.18ZM504.76 45.64C504.987 45.64 505.173 45.5667 505.32 45.42C505.48 45.26 505.56 45.0533 505.56 44.8C505.56 44.5333 505.48 44.3333 505.32 44.2C505.173 44.0667 504.987 44 504.76 44C504.533 44 504.34 44.0667 504.18 44.2C504.033 44.3333 503.96 44.5333 503.96 44.8C503.96 45.36 504.227 45.64 504.76 45.64ZM514.876 47.2C513.183 47.2 511.856 46.7067 510.896 45.72C509.95 44.72 509.476 43.3267 509.476 41.54C509.476 40.4733 509.703 39.5133 510.156 38.66C510.61 37.8067 511.243 37.1333 512.056 36.64C512.883 36.1333 513.856 35.88 514.976 35.88C516.523 35.88 517.75 36.2667 518.656 37.04C519.576 37.8133 520.323 38.9933 520.896 40.58C521.27 41.62 521.63 42.4333 521.976 43.02C522.336 43.6067 522.716 44.0267 523.116 44.28C523.516 44.52 523.97 44.64 524.476 44.64C525.21 44.64 525.79 44.3533 526.216 43.78C526.643 43.2067 526.856 42.46 526.856 41.54C526.856 40.66 526.623 39.92 526.156 39.32C525.69 38.72 525.023 38.42 524.156 38.42C523.823 38.42 523.543 38.4467 523.316 38.5C523.103 38.5533 522.856 38.6333 522.576 38.74L521.536 36.52C521.923 36.2933 522.383 36.1333 522.916 36.04C523.463 35.9333 523.983 35.88 524.476 35.88C526.183 35.88 527.51 36.3733 528.456 37.36C529.403 38.3467 529.876 39.74 529.876 41.54C529.876 42.5933 529.65 43.5467 529.196 44.4C528.756 45.2533 528.13 45.9333 527.316 46.44C526.503 46.9333 525.53 47.18 524.396 47.18C522.85 47.18 521.603 46.78 520.656 45.98C519.71 45.18 518.976 44.0067 518.456 42.46C518.11 41.42 517.756 40.6133 517.396 40.04C517.036 39.4533 516.65 39.04 516.236 38.8C515.836 38.56 515.383 38.44 514.876 38.44C514.103 38.44 513.516 38.7333 513.116 39.32C512.716 39.9067 512.516 40.6467 512.516 41.54C512.516 42.5 512.756 43.26 513.236 43.82C513.73 44.38 514.383 44.66 515.196 44.66C515.53 44.66 515.803 44.6333 516.016 44.58C516.243 44.5133 516.503 44.4333 516.796 44.34L517.816 46.56C517.443 46.7867 516.983 46.9467 516.436 47.04C515.903 47.1467 515.383 47.2 514.876 47.2ZM524.028 34.7C523.268 34.7 522.655 34.4933 522.188 34.08C521.722 33.6667 521.488 33.08 521.488 32.32C521.488 31.5733 521.722 30.9933 522.188 30.58C522.655 30.1533 523.268 29.94 524.028 29.94C524.802 29.94 525.428 30.1667 525.908 30.62C526.388 31.06 526.628 31.62 526.628 32.3C526.628 33.0733 526.388 33.6667 525.908 34.08C525.415 34.4933 524.788 34.7 524.028 34.7ZM524.068 33.16C524.295 33.16 524.488 33.0867 524.648 32.94C524.795 32.78 524.868 32.5733 524.868 32.32C524.868 32.0533 524.795 31.8533 524.648 31.72C524.488 31.5867 524.295 31.52 524.068 31.52C523.855 31.52 523.668 31.5867 523.508 31.72C523.348 31.8533 523.268 32.0533 523.268 32.32C523.268 32.5733 523.335 32.78 523.468 32.94C523.602 33.0867 523.802 33.16 524.068 33.16ZM523.093 56.32V47.94H525.093V54.36H527.613V56.32H523.093ZM534.583 41C533.823 41 533.21 40.7933 532.743 40.38C532.277 39.9667 532.043 39.38 532.043 38.62C532.043 37.8867 532.27 37.3133 532.723 36.9C533.19 36.4733 533.81 36.26 534.583 36.26C535.37 36.26 535.997 36.48 536.463 36.92C536.943 37.36 537.183 37.92 537.183 38.6C537.183 39.3733 536.937 39.9667 536.443 40.38C535.963 40.7933 535.343 41 534.583 41ZM534.623 39.46C534.85 39.46 535.037 39.3867 535.183 39.24C535.343 39.08 535.423 38.8733 535.423 38.62C535.423 38.3533 535.343 38.1533 535.183 38.02C535.037 37.8867 534.85 37.82 534.623 37.82C534.397 37.82 534.203 37.8867 534.043 38.02C533.897 38.1533 533.823 38.3533 533.823 38.62C533.823 38.8733 533.89 39.08 534.023 39.24C534.157 39.3867 534.357 39.46 534.623 39.46ZM534.583 47.18C533.823 47.18 533.21 46.9733 532.743 46.56C532.277 46.1467 532.043 45.56 532.043 44.8C532.043 44.0667 532.27 43.4933 532.723 43.08C533.19 42.6533 533.81 42.44 534.583 42.44C535.37 42.44 535.997 42.66 536.463 43.1C536.943 43.54 537.183 44.1 537.183 44.78C537.183 45.5533 536.937 46.1467 536.443 46.56C535.963 46.9733 535.343 47.18 534.583 47.18ZM534.623 45.64C534.85 45.64 535.037 45.5667 535.183 45.42C535.343 45.26 535.423 45.0533 535.423 44.8C535.423 44.5333 535.343 44.3333 535.183 44.2C535.037 44.0667 534.85 44 534.623 44C534.397 44 534.203 44.0667 534.043 44.2C533.897 44.3333 533.823 44.5333 533.823 44.8C533.823 45.36 534.09 45.64 534.623 45.64ZM542.239 47.2C541.399 46.7067 540.706 45.9867 540.159 45.04C539.613 44.08 539.339 42.9133 539.339 41.54C539.339 40.42 539.579 39.4333 540.059 38.58C540.553 37.7267 541.233 37.0667 542.099 36.6C542.979 36.12 543.999 35.88 545.159 35.88C546.133 35.88 546.993 36.0333 547.739 36.34C548.486 36.6467 549.099 37.08 549.579 37.64C550.099 37.04 550.726 36.6 551.459 36.32C552.193 36.0267 552.979 35.88 553.819 35.88C554.993 35.88 556.019 36.12 556.899 36.6C557.793 37.08 558.486 37.7467 558.979 38.6C559.486 39.4533 559.739 40.4333 559.739 41.54C559.739 42.6333 559.506 43.6067 559.039 44.46C558.573 45.3133 557.939 45.9867 557.139 46.48C556.339 46.96 555.446 47.2 554.459 47.2C553.979 47.2 553.473 47.1467 552.939 47.04C552.406 46.9467 551.966 46.7867 551.619 46.56L552.619 44.34C552.913 44.4467 553.159 44.5267 553.359 44.58C553.573 44.6333 553.839 44.66 554.159 44.66C554.946 44.66 555.566 44.3733 556.019 43.8C556.473 43.2267 556.699 42.4733 556.699 41.54C556.699 40.54 556.419 39.7467 555.859 39.16C555.299 38.5733 554.566 38.28 553.659 38.28C552.926 38.28 552.319 38.4667 551.839 38.84C551.373 39.2133 551.013 39.66 550.759 40.18C550.839 40.6067 550.879 41.06 550.879 41.54C550.879 42.8467 550.633 43.98 550.139 44.94C549.659 45.9 548.953 46.6533 548.019 47.2L546.519 44.8C547.119 44.3467 547.533 43.8467 547.759 43.3C547.999 42.74 548.119 42.1533 548.119 41.54C548.119 40.5533 547.853 39.7667 547.319 39.18C546.799 38.58 546.106 38.28 545.239 38.28C544.386 38.28 543.693 38.58 543.159 39.18C542.639 39.78 542.379 40.5667 542.379 41.54C542.379 42.1667 542.479 42.74 542.679 43.26C542.879 43.78 543.233 44.2933 543.739 44.8L542.239 47.2ZM553.663 34.5C552.903 34.5 552.23 34.34 551.643 34.02C551.057 33.6867 550.603 33.2333 550.283 32.66C549.95 32.0733 549.783 31.4067 549.783 30.66C549.783 29.9133 549.943 29.2533 550.263 28.68C550.583 28.1067 551.037 27.66 551.623 27.34C552.21 27.02 552.89 26.86 553.663 26.86C554.45 26.86 555.137 27.0267 555.723 27.36C556.297 27.6933 556.743 28.1467 557.063 28.72C557.383 29.28 557.543 29.9267 557.543 30.66C557.543 31.42 557.383 32.0867 557.063 32.66C556.73 33.2333 556.277 33.6867 555.703 34.02C555.117 34.34 554.437 34.5 553.663 34.5ZM553.663 32.58C554.157 32.58 554.53 32.3933 554.783 32.02C555.037 31.6467 555.163 31.1933 555.163 30.66C555.163 30.1533 555.037 29.7133 554.783 29.34C554.53 28.9533 554.157 28.76 553.663 28.76C553.17 28.76 552.797 28.9533 552.543 29.34C552.29 29.7133 552.163 30.1533 552.163 30.66C552.163 31.18 552.29 31.6333 552.543 32.02C552.797 32.3933 553.17 32.58 553.663 32.58ZM552.858 56.32V47.94H554.858V54.36H557.378V56.32H552.858Z" fill="#1D1D21"/>
<path d="M381.5 172C381.5 117.6 425.6 73.5 480 73.5C534.4 73.5 578.5 117.6 578.5 172C578.5 226.4 534.4 270.5 480 270.5C425.6 270.5 381.5 226.4 381.5 172Z" stroke="#10B981" stroke-width="3"/>
<path d="M463.727 137.18C462.479 137.18 461.429 136.922 460.577 136.406C459.725 135.89 459.107 135.152 458.723 134.192L460.649 133.13C460.961 133.73 461.357 134.21 461.837 134.57C462.317 134.93 462.941 135.11 463.709 135.11C464.177 135.11 464.585 134.996 464.933 134.768C465.293 134.528 465.473 134.216 465.473 133.832C465.473 133.472 465.317 133.208 465.005 133.04C464.705 132.872 464.285 132.788 463.745 132.788H463.385V130.898H463.637C464.177 130.898 464.573 130.802 464.825 130.61C465.077 130.418 465.203 130.178 465.203 129.89C465.203 129.566 465.053 129.332 464.753 129.188C464.465 129.044 464.051 128.972 463.511 128.972C463.067 128.972 462.659 129.038 462.287 129.17C461.927 129.302 461.747 129.512 461.747 129.8C461.747 129.944 461.765 130.052 461.801 130.124C461.837 130.196 461.915 130.304 462.035 130.448L460.199 131.492C459.947 131.276 459.755 131.018 459.623 130.718C459.503 130.418 459.443 130.112 459.443 129.8C459.443 128.96 459.797 128.282 460.505 127.766C461.213 127.25 462.191 126.992 463.439 126.992C464.327 126.992 465.059 127.082 465.635 127.262C466.223 127.442 466.673 127.694 466.985 128.018C467.429 127.742 467.939 127.502 468.515 127.298C469.103 127.094 469.775 126.992 470.531 126.992C471.563 126.992 472.469 127.208 473.249 127.64C474.041 128.072 474.653 128.672 475.085 129.44C475.529 130.208 475.751 131.09 475.751 132.086C475.751 133.094 475.529 133.982 475.085 134.75C474.653 135.518 474.047 136.118 473.267 136.55C472.487 136.97 471.587 137.18 470.567 137.18C469.919 137.18 469.283 137.084 468.659 136.892C468.683 135.152 469.055 133.796 469.775 132.824C470.495 131.84 471.701 131.168 473.393 130.808C473.177 130.304 472.823 129.902 472.331 129.602C471.839 129.302 471.221 129.152 470.477 129.152C469.973 129.152 469.463 129.23 468.947 129.386C468.443 129.53 467.993 129.74 467.597 130.016C467.501 130.916 466.889 131.522 465.761 131.834V131.924C466.481 132.056 467.057 132.302 467.489 132.662C467.933 133.022 468.155 133.562 468.155 134.282C468.155 135.158 467.795 135.86 467.075 136.388C466.355 136.916 465.239 137.18 463.727 137.18ZM470.711 135.056C471.515 135.056 472.181 134.828 472.709 134.372C473.249 133.904 473.549 133.238 473.609 132.374C472.841 132.494 472.205 132.782 471.701 133.238C471.197 133.682 470.849 134.288 470.657 135.056H470.711ZM482.531 137.18C481.595 137.18 480.761 137.018 480.029 136.694C479.297 136.358 478.697 135.884 478.229 135.272C477.761 134.66 477.461 133.934 477.329 133.094C478.073 132.71 478.733 132.416 479.309 132.212C479.885 132.008 480.425 131.87 480.929 131.798C481.445 131.726 481.967 131.69 482.495 131.69C483.575 131.69 484.607 131.9 485.591 132.32C485.591 132.248 485.591 132.17 485.591 132.086C485.591 131.066 485.303 130.298 484.727 129.782C484.163 129.266 483.365 129.008 482.333 129.008C481.637 129.008 480.995 129.11 480.407 129.314C479.831 129.506 479.219 129.776 478.571 130.124L477.581 128.198C478.361 127.814 479.147 127.52 479.939 127.316C480.731 127.1 481.643 126.992 482.675 126.992C483.827 126.992 484.823 127.202 485.663 127.622C486.515 128.03 487.169 128.618 487.625 129.386C488.093 130.142 488.327 131.042 488.327 132.086C488.327 133.166 488.081 134.09 487.589 134.858C487.097 135.614 486.413 136.19 485.537 136.586C484.673 136.982 483.671 137.18 482.531 137.18ZM479.903 134.084C480.107 134.384 480.461 134.636 480.965 134.84C481.481 135.032 482.021 135.128 482.585 135.128C483.749 135.128 484.577 134.768 485.069 134.048C484.673 133.88 484.283 133.742 483.899 133.634C483.527 133.526 483.143 133.472 482.747 133.472C481.811 133.472 480.863 133.676 479.903 134.084ZM495.441 137.18C494.325 137.18 493.353 136.97 492.525 136.55C491.709 136.118 491.073 135.518 490.617 134.75C490.173 133.982 489.951 133.094 489.951 132.086C489.951 130.85 490.203 129.806 490.707 128.954C491.211 128.09 491.847 127.436 492.615 126.992L493.965 129.152C493.449 129.596 493.083 130.058 492.867 130.538C492.663 131.006 492.561 131.522 492.561 132.086C492.561 132.206 492.567 132.32 492.579 132.428C492.975 132.224 493.407 132.05 493.875 131.906C494.355 131.762 494.889 131.69 495.477 131.69C495.993 131.69 496.473 131.75 496.917 131.87C497.373 131.99 497.829 132.164 498.285 132.392C498.285 132.296 498.285 132.194 498.285 132.086C498.285 131.546 498.183 131.036 497.979 130.556C497.775 130.064 497.409 129.596 496.881 129.152L498.231 126.992C499.011 127.436 499.647 128.09 500.139 128.954C500.643 129.806 500.895 130.85 500.895 132.086C500.895 133.094 500.673 133.982 500.229 134.75C499.785 135.506 499.155 136.1 498.339 136.532C497.523 136.964 496.557 137.18 495.441 137.18ZM495.405 133.472C494.901 133.472 494.463 133.526 494.091 133.634C493.719 133.742 493.365 133.874 493.029 134.03C493.497 134.774 494.289 135.146 495.405 135.146C495.957 135.146 496.443 135.056 496.863 134.876C497.283 134.684 497.607 134.39 497.835 133.994C497.487 133.826 497.127 133.7 496.755 133.616C496.383 133.52 495.933 133.472 495.405 133.472ZM497.37 126.318L493.536 123.186L494.904 121.512L498.738 124.662L497.37 126.318ZM495.353 142.526C494.669 142.526 494.117 142.34 493.697 141.968C493.277 141.596 493.067 141.068 493.067 140.384C493.067 139.724 493.277 139.202 493.697 138.818C494.105 138.446 494.657 138.26 495.353 138.26C496.037 138.26 496.601 138.452 497.045 138.836C497.477 139.232 497.693 139.742 497.693 140.366C497.693 141.062 497.477 141.596 497.045 141.968C496.601 142.34 496.037 142.526 495.353 142.526ZM495.389 141.122C495.593 141.122 495.767 141.056 495.911 140.924C496.043 140.792 496.109 140.612 496.109 140.384C496.109 140.144 496.043 139.958 495.911 139.826C495.767 139.706 495.593 139.646 495.389 139.646C495.185 139.646 495.017 139.706 494.885 139.826C494.741 139.958 494.669 140.144 494.669 140.384C494.669 140.612 494.729 140.792 494.849 140.924C494.969 141.056 495.149 141.122 495.389 141.122Z" fill="#1D1D21"/>
<circle cx="560" cy="272" r="98.5" transform="rotate(-180 560 272)" stroke="#10B981" stroke-width="3"/>
<path d="M550.12 284.18C549.1 284.18 548.188 283.964 547.384 283.532C546.592 283.1 545.962 282.506 545.494 281.75C545.038 280.982 544.81 280.094 544.81 279.086C544.81 278.078 545.038 277.19 545.494 276.422C545.962 275.654 546.592 275.06 547.384 274.64C548.188 274.208 549.1 273.992 550.12 273.992C550.972 273.992 551.722 274.136 552.37 274.424C553.018 274.7 553.552 275.09 553.972 275.594C554.32 275.162 554.806 274.79 555.43 274.478C556.066 274.154 556.864 273.992 557.824 273.992C558.904 273.992 559.84 274.196 560.632 274.604C561.436 275.012 562.054 275.6 562.486 276.368C562.93 277.124 563.152 278.024 563.152 279.068C563.152 280.052 562.936 280.934 562.504 281.714C562.072 282.482 561.484 283.088 560.74 283.532C559.996 283.964 559.15 284.18 558.202 284.18C557.986 284.18 557.728 284.156 557.428 284.108C557.14 284.06 556.858 283.994 556.582 283.91C556.306 283.826 556.072 283.724 555.88 283.604L556.78 281.606C557.092 281.726 557.326 281.804 557.482 281.84C557.65 281.876 557.866 281.894 558.13 281.894C558.814 281.894 559.366 281.642 559.786 281.138C560.206 280.634 560.416 279.944 560.416 279.068C560.416 278.228 560.182 277.532 559.714 276.98C559.258 276.416 558.64 276.134 557.86 276.134C557.164 276.134 556.576 276.308 556.096 276.656C555.628 276.992 555.274 277.4 555.034 277.88C555.106 278.264 555.142 278.666 555.142 279.086C555.142 280.082 554.938 280.964 554.53 281.732C554.122 282.5 553.54 283.1 552.784 283.532C552.04 283.964 551.152 284.18 550.12 284.18ZM550.102 282.02C550.918 282.02 551.548 281.75 551.992 281.21C552.448 280.67 552.676 279.962 552.676 279.086C552.676 278.186 552.448 277.472 551.992 276.944C551.536 276.416 550.906 276.152 550.102 276.152C549.37 276.152 548.758 276.422 548.266 276.962C547.786 277.502 547.546 278.21 547.546 279.086C547.546 279.95 547.786 280.658 548.266 281.21C548.746 281.75 549.358 282.02 550.102 282.02ZM570.269 284.18C569.189 284.18 568.235 283.964 567.407 283.532C566.591 283.1 565.949 282.506 565.481 281.75C565.013 280.982 564.779 280.094 564.779 279.086C564.779 278.078 565.013 277.19 565.481 276.422C565.949 275.654 566.591 275.06 567.407 274.64C568.235 274.208 569.189 273.992 570.269 273.992C571.373 273.992 572.333 274.214 573.149 274.658C573.965 275.102 574.595 275.708 575.039 276.476C575.495 277.244 575.723 278.114 575.723 279.086C575.723 280.094 575.489 280.982 575.021 281.75C574.565 282.506 573.923 283.1 573.095 283.532C572.279 283.964 571.337 284.18 570.269 284.18ZM569.891 282.02C570.851 282.02 571.607 281.762 572.159 281.246C572.711 280.73 572.987 280.01 572.987 279.086C572.987 278.198 572.717 277.49 572.177 276.962C571.637 276.422 570.917 276.152 570.017 276.152C569.873 276.152 569.729 276.164 569.585 276.188C569.837 276.584 570.053 277.022 570.233 277.502C570.413 277.97 570.503 278.504 570.503 279.104C570.503 279.644 570.425 280.148 570.269 280.616C570.125 281.072 569.897 281.534 569.585 282.002C569.693 282.014 569.795 282.02 569.891 282.02ZM566.885 279.086C566.885 279.566 566.987 279.998 567.191 280.382C567.395 280.754 567.653 281.072 567.965 281.336C568.205 281 568.391 280.658 568.523 280.31C568.667 279.95 568.739 279.524 568.739 279.032C568.739 278.576 568.667 278.174 568.523 277.826C568.379 277.478 568.199 277.154 567.983 276.854C567.647 277.118 567.377 277.448 567.173 277.844C566.981 278.228 566.885 278.642 566.885 279.086ZM568.817 272.75C568.229 272.306 567.773 271.898 567.449 271.526C567.125 271.142 566.903 270.764 566.783 270.392C566.663 270.008 566.603 269.612 566.603 269.204C566.603 268.544 566.753 267.968 567.053 267.476C567.353 266.972 567.767 266.582 568.295 266.306C568.823 266.018 569.423 265.874 570.095 265.874C570.719 265.874 571.295 266.012 571.823 266.288C572.351 266.564 572.735 266.96 572.975 267.476L571.481 268.394C571.373 268.214 571.205 268.04 570.977 267.872C570.749 267.692 570.449 267.602 570.077 267.602C569.693 267.602 569.375 267.752 569.123 268.052C568.871 268.352 568.745 268.694 568.745 269.078C568.745 269.498 568.847 269.87 569.051 270.194C569.243 270.506 569.459 270.77 569.699 270.986C569.927 271.19 570.089 271.34 570.185 271.436L568.817 272.75ZM582.531 284.18C581.583 284.18 580.713 283.982 579.921 283.586C579.129 283.19 578.493 282.614 578.013 281.858C577.545 281.09 577.311 280.166 577.311 279.086C577.311 278.042 577.539 277.142 577.995 276.386C578.451 275.618 579.075 275.03 579.867 274.622C580.659 274.202 581.559 273.992 582.567 273.992C583.107 273.992 583.593 274.028 584.025 274.1C584.469 274.172 584.895 274.298 585.303 274.478C585.723 274.658 586.161 274.916 586.617 275.252L585.735 276.98C585.291 276.596 584.817 276.338 584.313 276.206C583.821 276.074 583.359 276.008 582.927 276.008C582.087 276.008 581.397 276.266 580.857 276.782C580.317 277.298 580.047 278.066 580.047 279.086C580.047 279.17 580.047 279.248 580.047 279.32C581.031 278.9 581.991 278.69 582.927 278.69C583.659 278.69 584.355 278.81 585.015 279.05C585.687 279.29 586.395 279.638 587.139 280.094C586.995 281.354 586.533 282.35 585.753 283.082C584.973 283.814 583.899 284.18 582.531 284.18ZM582.729 280.472C582.297 280.472 581.901 280.538 581.541 280.67C581.181 280.79 580.845 280.922 580.533 281.066C580.989 281.774 581.685 282.128 582.621 282.128C583.125 282.128 583.527 282.032 583.827 281.84C584.127 281.636 584.373 281.384 584.565 281.084C584.289 280.88 584.001 280.73 583.701 280.634C583.401 280.526 583.077 280.472 582.729 280.472ZM591.762 292.388V284.126C590.514 284.078 589.614 283.838 589.062 283.406C588.522 282.962 588.252 282.392 588.252 281.696C588.252 281.12 588.486 280.628 588.954 280.22C589.422 279.812 590.034 279.608 590.79 279.608C591.426 279.608 591.996 279.818 592.5 280.238C593.016 280.658 593.37 281.33 593.562 282.254C593.946 282.17 594.258 282.044 594.498 281.876C594.738 281.696 594.858 281.444 594.858 281.12C594.858 280.832 594.75 280.586 594.534 280.382C594.318 280.166 594.024 279.974 593.652 279.806C593.292 279.626 592.884 279.44 592.428 279.248C591.588 278.888 590.982 278.51 590.61 278.114C590.25 277.706 590.07 277.19 590.07 276.566C590.07 276.062 590.208 275.618 590.484 275.234C590.76 274.838 591.132 274.532 591.6 274.316C592.08 274.088 592.626 273.974 593.238 273.974C594.582 273.974 595.722 274.424 596.658 275.324L595.272 276.872C595.032 276.584 594.726 276.362 594.354 276.206C593.994 276.05 593.682 275.972 593.418 275.972C593.214 275.972 593.028 276.026 592.86 276.134C592.704 276.23 592.626 276.38 592.626 276.584C592.626 276.848 592.794 277.064 593.13 277.232C593.466 277.4 593.862 277.574 594.318 277.754C595.002 278.018 595.572 278.288 596.028 278.564C596.484 278.828 596.826 279.158 597.054 279.554C597.294 279.938 597.414 280.448 597.414 281.084C597.414 281.612 597.294 282.092 597.054 282.524C596.826 282.956 596.442 283.316 595.902 283.604C595.362 283.88 594.636 284.048 593.724 284.108V292.388H591.762ZM589.89 281.57C589.89 281.87 590.034 282.08 590.322 282.2C590.622 282.308 591.072 282.368 591.672 282.38C591.6 281.912 591.48 281.552 591.312 281.3C591.144 281.048 590.898 280.922 590.574 280.922C590.382 280.922 590.22 280.988 590.088 281.12C589.956 281.24 589.89 281.39 589.89 281.57ZM606.478 292.388V279.086C606.478 278.222 606.232 277.52 605.74 276.98C605.26 276.428 604.594 276.152 603.742 276.152C603.106 276.152 602.566 276.308 602.122 276.62C601.69 276.92 601.372 277.316 601.168 277.808C602.308 278.06 603.22 278.444 603.904 278.96C604.6 279.476 605.104 280.142 605.416 280.958C605.728 281.774 605.89 282.752 605.902 283.892C605.566 284 605.236 284.072 604.912 284.108C604.588 284.156 604.282 284.18 603.994 284.18C602.986 284.18 602.092 283.97 601.312 283.55C600.532 283.118 599.92 282.518 599.476 281.75C599.032 280.982 598.81 280.094 598.81 279.086C598.81 278.078 599.026 277.19 599.458 276.422C599.902 275.654 600.514 275.06 601.294 274.64C602.074 274.208 602.974 273.992 603.994 273.992C605.038 273.992 605.944 274.214 606.712 274.658C607.492 275.102 608.092 275.708 608.512 276.476C608.944 277.232 609.16 278.102 609.16 279.086V290.228H611.158V292.388H606.478ZM604.03 282.056H604.084C603.604 280.544 602.548 279.656 600.916 279.392C600.976 280.172 601.294 280.814 601.87 281.318C602.446 281.81 603.166 282.056 604.03 282.056ZM612.512 284.18C612.092 284.18 611.648 284.132 611.18 284.036C610.724 283.952 610.34 283.808 610.028 283.604L610.946 281.606C611.15 281.69 611.342 281.762 611.522 281.822C611.714 281.87 611.948 281.894 612.224 281.894C612.86 281.894 613.376 281.66 613.772 281.192C614.168 280.712 614.366 280.07 614.366 279.266C614.366 278.342 614.138 277.628 613.682 277.124C613.238 276.62 612.608 276.368 611.792 276.368C611.132 276.368 610.562 276.464 610.082 276.656C609.602 276.836 609.14 277.052 608.696 277.304L607.508 275.45C608.132 275.066 608.672 274.772 609.128 274.568C609.584 274.352 610.04 274.202 610.496 274.118C610.94 274.034 611.462 273.992 612.062 273.992C613.094 273.992 613.982 274.202 614.726 274.622C615.482 275.03 616.064 275.618 616.472 276.386C616.892 277.142 617.102 278.042 617.102 279.086C617.102 280.706 616.694 281.96 615.878 282.848C615.074 283.736 613.952 284.18 612.512 284.18ZM550.12 308.18C549.1 308.18 548.188 307.964 547.384 307.532C546.592 307.1 545.962 306.506 545.494 305.75C545.038 304.982 544.81 304.094 544.81 303.086C544.81 302.078 545.038 301.19 545.494 300.422C545.962 299.654 546.592 299.06 547.384 298.64C548.188 298.208 549.1 297.992 550.12 297.992C550.972 297.992 551.722 298.136 552.37 298.424C553.018 298.7 553.552 299.09 553.972 299.594C554.32 299.162 554.806 298.79 555.43 298.478C556.066 298.154 556.864 297.992 557.824 297.992C558.904 297.992 559.84 298.196 560.632 298.604C561.436 299.012 562.054 299.6 562.486 300.368C562.93 301.124 563.152 302.024 563.152 303.068C563.152 304.052 562.936 304.934 562.504 305.714C562.072 306.482 561.484 307.088 560.74 307.532C559.996 307.964 559.15 308.18 558.202 308.18C557.986 308.18 557.728 308.156 557.428 308.108C557.14 308.06 556.858 307.994 556.582 307.91C556.306 307.826 556.072 307.724 555.88 307.604L556.78 305.606C557.092 305.726 557.326 305.804 557.482 305.84C557.65 305.876 557.866 305.894 558.13 305.894C558.814 305.894 559.366 305.642 559.786 305.138C560.206 304.634 560.416 303.944 560.416 303.068C560.416 302.228 560.182 301.532 559.714 300.98C559.258 300.416 558.64 300.134 557.86 300.134C557.164 300.134 556.576 300.308 556.096 300.656C555.628 300.992 555.274 301.4 555.034 301.88C555.106 302.264 555.142 302.666 555.142 303.086C555.142 304.082 554.938 304.964 554.53 305.732C554.122 306.5 553.54 307.1 552.784 307.532C552.04 307.964 551.152 308.18 550.12 308.18ZM550.102 306.02C550.918 306.02 551.548 305.75 551.992 305.21C552.448 304.67 552.676 303.962 552.676 303.086C552.676 302.186 552.448 301.472 551.992 300.944C551.536 300.416 550.906 300.152 550.102 300.152C549.37 300.152 548.758 300.422 548.266 300.962C547.786 301.502 547.546 302.21 547.546 303.086C547.546 303.95 547.786 304.658 548.266 305.21C548.746 305.75 549.358 306.02 550.102 306.02ZM570.197 308.162C569.825 308.162 569.459 308.114 569.099 308.018C568.751 307.922 568.409 307.796 568.073 307.64V312.698C568.073 313.226 568.181 313.598 568.397 313.814C568.625 314.03 568.913 314.138 569.261 314.138H578.693C579.089 314.138 579.377 314.012 579.557 313.76C579.749 313.508 579.845 313.154 579.845 312.698V311.978H582.545V312.428C582.545 315.068 581.243 316.388 578.639 316.388H569.297C566.681 316.388 565.373 315.08 565.373 312.464V305.642L567.425 304.544C567.725 304.928 567.989 305.228 568.217 305.444C568.445 305.66 568.673 305.81 568.901 305.894C569.141 305.966 569.411 306.002 569.711 306.002C570.479 306.002 571.103 305.744 571.583 305.228C572.063 304.7 572.303 303.986 572.303 303.086C572.303 302.198 572.081 301.49 571.637 300.962C571.193 300.422 570.617 300.152 569.909 300.152C569.405 300.152 568.979 300.248 568.631 300.44C568.283 300.632 567.899 300.992 567.479 301.52L565.607 300.368C565.979 299.636 566.531 299.06 567.263 298.64C568.007 298.208 568.871 297.992 569.855 297.992C570.887 297.992 571.793 298.202 572.573 298.622C573.353 299.042 573.959 299.636 574.391 300.404C574.823 301.16 575.039 302.054 575.039 303.086C575.039 303.494 574.997 303.896 574.913 304.292C575.117 304.736 575.417 305.138 575.813 305.498C576.221 305.846 576.755 306.02 577.415 306.02C578.207 306.02 578.831 305.75 579.287 305.21C579.755 304.67 579.989 303.962 579.989 303.086C579.989 302.234 579.791 301.556 579.395 301.052C579.011 300.536 578.495 300.278 577.847 300.278C577.571 300.278 577.337 300.302 577.145 300.35C576.965 300.398 576.773 300.47 576.569 300.566L575.651 298.568C575.963 298.364 576.347 298.22 576.803 298.136C577.271 298.04 577.715 297.992 578.135 297.992C578.987 297.992 579.755 298.214 580.439 298.658C581.135 299.09 581.687 299.69 582.095 300.458C582.515 301.214 582.725 302.09 582.725 303.086C582.725 304.094 582.503 304.982 582.059 305.75C581.627 306.506 581.021 307.1 580.241 307.532C579.473 307.964 578.579 308.18 577.559 308.18C576.707 308.18 575.963 308.03 575.327 307.73C574.691 307.43 574.181 307.028 573.797 306.524C573.365 307.028 572.837 307.43 572.213 307.73C571.601 308.018 570.929 308.162 570.197 308.162ZM576.885 296.75C576.297 296.306 575.841 295.898 575.517 295.526C575.193 295.142 574.971 294.764 574.851 294.392C574.731 294.008 574.671 293.612 574.671 293.204C574.671 292.544 574.821 291.968 575.121 291.476C575.421 290.972 575.835 290.582 576.363 290.306C576.891 290.018 577.491 289.874 578.163 289.874C578.787 289.874 579.363 290.012 579.891 290.288C580.419 290.564 580.803 290.96 581.043 291.476L579.549 292.394C579.441 292.214 579.273 292.04 579.045 291.872C578.817 291.692 578.517 291.602 578.145 291.602C577.761 291.602 577.443 291.752 577.191 292.052C576.939 292.352 576.813 292.694 576.813 293.078C576.813 293.498 576.915 293.87 577.119 294.194C577.311 294.506 577.527 294.77 577.767 294.986C577.995 295.19 578.157 295.34 578.253 295.436L576.885 296.75ZM586.953 302.6C586.269 302.6 585.717 302.414 585.297 302.042C584.877 301.67 584.667 301.142 584.667 300.458C584.667 299.798 584.871 299.282 585.279 298.91C585.699 298.526 586.257 298.334 586.953 298.334C587.661 298.334 588.225 298.532 588.645 298.928C589.077 299.324 589.293 299.828 589.293 300.44C589.293 301.136 589.071 301.67 588.627 302.042C588.195 302.414 587.637 302.6 586.953 302.6ZM586.989 301.214C587.193 301.214 587.361 301.148 587.493 301.016C587.637 300.872 587.709 300.686 587.709 300.458C587.709 300.218 587.637 300.038 587.493 299.918C587.361 299.798 587.193 299.738 586.989 299.738C586.785 299.738 586.611 299.798 586.467 299.918C586.335 300.038 586.269 300.218 586.269 300.458C586.269 300.686 586.329 300.872 586.449 301.016C586.569 301.148 586.749 301.214 586.989 301.214ZM586.953 308.162C586.269 308.162 585.717 307.976 585.297 307.604C584.877 307.232 584.667 306.704 584.667 306.02C584.667 305.36 584.871 304.844 585.279 304.472C585.699 304.088 586.257 303.896 586.953 303.896C587.661 303.896 588.225 304.094 588.645 304.49C589.077 304.886 589.293 305.39 589.293 306.002C589.293 306.698 589.071 307.232 588.627 307.604C588.195 307.976 587.637 308.162 586.953 308.162ZM586.989 306.776C587.193 306.776 587.361 306.71 587.493 306.578C587.637 306.434 587.709 306.248 587.709 306.02C587.709 305.78 587.637 305.6 587.493 305.48C587.361 305.36 587.193 305.3 586.989 305.3C586.785 305.3 586.611 305.36 586.467 305.48C586.335 305.6 586.269 305.78 586.269 306.02C586.269 306.524 586.509 306.776 586.989 306.776ZM596.724 308.18C595.608 308.18 594.636 307.97 593.808 307.55C592.992 307.118 592.356 306.518 591.9 305.75C591.456 304.982 591.234 304.094 591.234 303.086C591.234 301.85 591.486 300.806 591.99 299.954C592.494 299.09 593.13 298.436 593.898 297.992L595.248 300.152C594.732 300.596 594.366 301.058 594.15 301.538C593.946 302.006 593.844 302.522 593.844 303.086C593.844 303.206 593.85 303.32 593.862 303.428C594.258 303.224 594.69 303.05 595.158 302.906C595.638 302.762 596.172 302.69 596.76 302.69C597.276 302.69 597.756 302.75 598.2 302.87C598.656 302.99 599.112 303.164 599.568 303.392C599.568 303.296 599.568 303.194 599.568 303.086C599.568 302.546 599.466 302.036 599.262 301.556C599.058 301.064 598.692 300.596 598.164 300.152L599.514 297.992C600.294 298.436 600.93 299.09 601.422 299.954C601.926 300.806 602.178 301.85 602.178 303.086C602.178 304.094 601.956 304.982 601.512 305.75C601.068 306.506 600.438 307.1 599.622 307.532C598.806 307.964 597.84 308.18 596.724 308.18ZM596.688 304.472C596.184 304.472 595.746 304.526 595.374 304.634C595.002 304.742 594.648 304.874 594.312 305.03C594.78 305.774 595.572 306.146 596.688 306.146C597.24 306.146 597.726 306.056 598.146 305.876C598.566 305.684 598.89 305.39 599.118 304.994C598.77 304.826 598.41 304.7 598.038 304.616C597.666 304.52 597.216 304.472 596.688 304.472ZM593.539 316.388V314.624H595.807V308.846H597.607V316.388H593.539ZM604.919 308.18C604.499 308.18 604.055 308.132 603.587 308.036C603.131 307.952 602.747 307.808 602.435 307.604L603.353 305.606C603.557 305.69 603.749 305.762 603.929 305.822C604.121 305.87 604.355 305.894 604.631 305.894C605.267 305.894 605.783 305.66 606.179 305.192C606.575 304.712 606.773 304.07 606.773 303.266C606.773 302.342 606.545 301.628 606.089 301.124C605.645 300.62 605.015 300.368 604.199 300.368C603.539 300.368 602.969 300.464 602.489 300.656C602.009 300.836 601.547 301.052 601.103 301.304L599.915 299.45C600.539 299.066 601.079 298.772 601.535 298.568C601.991 298.352 602.447 298.202 602.903 298.118C603.347 298.034 603.869 297.992 604.469 297.992C605.501 297.992 606.389 298.202 607.133 298.622C607.889 299.03 608.471 299.618 608.879 300.386C609.299 301.142 609.509 302.042 609.509 303.086C609.509 304.706 609.101 305.96 608.285 306.848C607.481 307.736 606.359 308.18 604.919 308.18Z" fill="#1D1D21"/>
<circle cx="400" cy="272" r="98.5" transform="rotate(-180 400 272)" stroke="#10B981" stroke-width="3"/>
<path d="M351.31 304.388C348.706 304.388 347.404 303.068 347.404 300.428V281.888C347.404 279.248 348.706 277.928 351.31 277.928H359.446C362.05 277.928 363.352 279.248 363.352 281.888V282.428H361.372V281.618C361.372 280.658 360.994 280.178 360.238 280.178H351.238C350.482 280.178 350.104 280.658 350.104 281.618V300.698C350.104 301.658 350.482 302.138 351.238 302.138H360.238C360.994 302.138 361.372 301.658 361.372 300.698V292.832H363.352V300.428C363.352 303.068 362.05 304.388 359.446 304.388H351.31ZM358.259 296.18C357.143 296.18 356.171 295.97 355.343 295.55C354.527 295.118 353.891 294.518 353.435 293.75C352.991 292.982 352.769 292.094 352.769 291.086C352.769 289.85 353.021 288.806 353.525 287.954C354.029 287.09 354.665 286.436 355.433 285.992L356.783 288.152C356.267 288.596 355.901 289.058 355.685 289.538C355.481 290.006 355.379 290.522 355.379 291.086C355.379 291.206 355.385 291.32 355.397 291.428C355.793 291.224 356.225 291.05 356.693 290.906C357.173 290.762 357.707 290.69 358.295 290.69C358.811 290.69 359.291 290.75 359.735 290.87C360.191 290.99 360.647 291.164 361.103 291.392C361.103 291.296 361.103 291.194 361.103 291.086C361.103 290.546 361.001 290.036 360.797 289.556C360.593 289.064 360.227 288.596 359.699 288.152L361.049 285.992C361.829 286.436 362.465 287.09 362.957 287.954C363.461 288.806 363.713 289.85 363.713 291.086C363.713 292.094 363.491 292.982 363.047 293.75C362.603 294.506 361.973 295.1 361.157 295.532C360.341 295.964 359.375 296.18 358.259 296.18ZM358.223 292.472C357.719 292.472 357.281 292.526 356.909 292.634C356.537 292.742 356.183 292.874 355.847 293.03C356.315 293.774 357.107 294.146 358.223 294.146C358.775 294.146 359.261 294.056 359.681 293.876C360.101 293.684 360.425 293.39 360.653 292.994C360.305 292.826 359.945 292.7 359.573 292.616C359.201 292.52 358.751 292.472 358.223 292.472ZM368.362 304.388V296.126C367.114 296.078 366.214 295.838 365.662 295.406C365.122 294.962 364.852 294.392 364.852 293.696C364.852 293.12 365.086 292.628 365.554 292.22C366.022 291.812 366.634 291.608 367.39 291.608C368.026 291.608 368.596 291.818 369.1 292.238C369.616 292.658 369.97 293.33 370.162 294.254C370.546 294.17 370.858 294.044 371.098 293.876C371.338 293.696 371.458 293.444 371.458 293.12C371.458 292.832 371.35 292.586 371.134 292.382C370.918 292.166 370.624 291.974 370.252 291.806C369.892 291.626 369.484 291.44 369.028 291.248C368.188 290.888 367.582 290.51 367.21 290.114C366.85 289.706 366.67 289.19 366.67 288.566C366.67 288.062 366.808 287.618 367.084 287.234C367.36 286.838 367.732 286.532 368.2 286.316C368.68 286.088 369.226 285.974 369.838 285.974C371.182 285.974 372.322 286.424 373.258 287.324L371.872 288.872C371.632 288.584 371.326 288.362 370.954 288.206C370.594 288.05 370.282 287.972 370.018 287.972C369.814 287.972 369.628 288.026 369.46 288.134C369.304 288.23 369.226 288.38 369.226 288.584C369.226 288.848 369.394 289.064 369.73 289.232C370.066 289.4 370.462 289.574 370.918 289.754C371.602 290.018 372.172 290.288 372.628 290.564C373.084 290.828 373.426 291.158 373.654 291.554C373.894 291.938 374.014 292.448 374.014 293.084C374.014 293.612 373.894 294.092 373.654 294.524C373.426 294.956 373.042 295.316 372.502 295.604C371.962 295.88 371.236 296.048 370.324 296.108V304.388H368.362ZM366.49 293.57C366.49 293.87 366.634 294.08 366.922 294.2C367.222 294.308 367.672 294.368 368.272 294.38C368.2 293.912 368.08 293.552 367.912 293.3C367.744 293.048 367.498 292.922 367.174 292.922C366.982 292.922 366.82 292.988 366.688 293.12C366.556 293.24 366.49 293.39 366.49 293.57ZM368.443 284.75C367.855 284.306 367.399 283.898 367.075 283.526C366.751 283.142 366.529 282.764 366.409 282.392C366.289 282.008 366.229 281.612 366.229 281.204C366.229 280.544 366.379 279.968 366.679 279.476C366.979 278.972 367.393 278.582 367.921 278.306C368.449 278.018 369.049 277.874 369.721 277.874C370.345 277.874 370.921 278.012 371.449 278.288C371.977 278.564 372.361 278.96 372.601 279.476L371.107 280.394C370.999 280.214 370.831 280.04 370.603 279.872C370.375 279.692 370.075 279.602 369.703 279.602C369.319 279.602 369.001 279.752 368.749 280.052C368.497 280.352 368.371 280.694 368.371 281.078C368.371 281.498 368.473 281.87 368.677 282.194C368.869 282.506 369.085 282.77 369.325 282.986C369.553 283.19 369.715 283.34 369.811 283.436L368.443 284.75ZM380.9 296.18C379.784 296.18 378.812 295.97 377.984 295.55C377.168 295.118 376.532 294.518 376.076 293.75C375.632 292.982 375.41 292.094 375.41 291.086C375.41 289.85 375.662 288.806 376.166 287.954C376.67 287.09 377.306 286.436 378.074 285.992L379.424 288.152C378.908 288.596 378.542 289.058 378.326 289.538C378.122 290.006 378.02 290.522 378.02 291.086C378.02 291.206 378.026 291.32 378.038 291.428C378.434 291.224 378.866 291.05 379.334 290.906C379.814 290.762 380.348 290.69 380.936 290.69C381.452 290.69 381.932 290.75 382.376 290.87C382.832 290.99 383.288 291.164 383.744 291.392C383.744 291.296 383.744 291.194 383.744 291.086C383.744 290.546 383.642 290.036 383.438 289.556C383.234 289.064 382.868 288.596 382.34 288.152L383.69 285.992C384.47 286.436 385.106 287.09 385.598 287.954C386.102 288.806 386.354 289.85 386.354 291.086C386.354 292.094 386.132 292.982 385.688 293.75C385.244 294.506 384.614 295.1 383.798 295.532C382.982 295.964 382.016 296.18 380.9 296.18ZM380.864 292.472C380.36 292.472 379.922 292.526 379.55 292.634C379.178 292.742 378.824 292.874 378.488 293.03C378.956 293.774 379.748 294.146 380.864 294.146C381.416 294.146 381.902 294.056 382.322 293.876C382.742 293.684 383.066 293.39 383.294 292.994C382.946 292.826 382.586 292.7 382.214 292.616C381.842 292.52 381.392 292.472 380.864 292.472ZM389.094 296.18C388.674 296.18 388.23 296.132 387.762 296.036C387.306 295.952 386.922 295.808 386.61 295.604L387.528 293.606C387.732 293.69 387.924 293.762 388.104 293.822C388.296 293.87 388.53 293.894 388.806 293.894C389.442 293.894 389.958 293.66 390.354 293.192C390.75 292.712 390.948 292.07 390.948 291.266C390.948 290.342 390.72 289.628 390.264 289.124C389.82 288.62 389.19 288.368 388.374 288.368C387.714 288.368 387.144 288.464 386.664 288.656C386.184 288.836 385.722 289.052 385.278 289.304L384.09 287.45C384.714 287.066 385.254 286.772 385.71 286.568C386.166 286.352 386.622 286.202 387.078 286.118C387.522 286.034 388.044 285.992 388.644 285.992C389.676 285.992 390.564 286.202 391.308 286.622C392.064 287.03 392.646 287.618 393.054 288.386C393.474 289.142 393.684 290.042 393.684 291.086C393.684 292.706 393.276 293.96 392.46 294.848C391.656 295.736 390.534 296.18 389.094 296.18ZM400.798 296.18C399.718 296.18 398.764 295.964 397.936 295.532C397.12 295.1 396.478 294.506 396.01 293.75C395.542 292.982 395.308 292.094 395.308 291.086C395.308 290.078 395.542 289.19 396.01 288.422C396.478 287.654 397.12 287.06 397.936 286.64C398.764 286.208 399.718 285.992 400.798 285.992C401.902 285.992 402.862 286.214 403.678 286.658C404.494 287.102 405.124 287.708 405.568 288.476C406.024 289.244 406.252 290.114 406.252 291.086C406.252 292.094 406.018 292.982 405.55 293.75C405.094 294.506 404.452 295.1 403.624 295.532C402.808 295.964 401.866 296.18 400.798 296.18ZM400.42 294.02C401.38 294.02 402.136 293.762 402.688 293.246C403.24 292.73 403.516 292.01 403.516 291.086C403.516 290.198 403.246 289.49 402.706 288.962C402.166 288.422 401.446 288.152 400.546 288.152C400.402 288.152 400.258 288.164 400.114 288.188C400.366 288.584 400.582 289.022 400.762 289.502C400.942 289.97 401.032 290.504 401.032 291.104C401.032 291.644 400.954 292.148 400.798 292.616C400.654 293.072 400.426 293.534 400.114 294.002C400.222 294.014 400.324 294.02 400.42 294.02ZM397.414 291.086C397.414 291.566 397.516 291.998 397.72 292.382C397.924 292.754 398.182 293.072 398.494 293.336C398.734 293 398.92 292.658 399.052 292.31C399.196 291.95 399.268 291.524 399.268 291.032C399.268 290.576 399.196 290.174 399.052 289.826C398.908 289.478 398.728 289.154 398.512 288.854C398.176 289.118 397.906 289.448 397.702 289.844C397.51 290.228 397.414 290.642 397.414 291.086ZM409.01 296.18C408.59 296.18 408.146 296.132 407.678 296.036C407.222 295.952 406.838 295.808 406.526 295.604L407.444 293.606C407.648 293.69 407.84 293.762 408.02 293.822C408.212 293.87 408.446 293.894 408.722 293.894C409.358 293.894 409.874 293.66 410.27 293.192C410.666 292.712 410.864 292.07 410.864 291.266C410.864 290.342 410.636 289.628 410.18 289.124C409.736 288.62 409.106 288.368 408.29 288.368C407.63 288.368 407.06 288.464 406.58 288.656C406.1 288.836 405.638 289.052 405.194 289.304L404.006 287.45C404.63 287.066 405.17 286.772 405.626 286.568C406.082 286.352 406.538 286.202 406.994 286.118C407.438 286.034 407.96 285.992 408.56 285.992C409.592 285.992 410.48 286.202 411.224 286.622C411.98 287.03 412.562 287.618 412.97 288.386C413.39 289.142 413.6 290.042 413.6 291.086C413.6 292.706 413.192 293.96 412.376 294.848C411.572 295.736 410.45 296.18 409.01 296.18Z" fill="#1D1D21"/>
<circle cx="480" cy="243" r="58" fill="#1D1D21"/>
<path d="M433.289 251.183C431.393 251.183 430.043 250.72 429.239 249.795C428.45 248.856 428.055 247.508 428.055 245.751V239.877C428.055 238.08 428.45 236.725 429.239 235.813C430.029 234.888 431.379 234.425 433.289 234.425C435.112 234.425 436.405 234.834 437.166 235.652C437.927 236.47 438.307 237.63 438.307 239.132V240.541H434.538V238.911C434.538 238.281 434.466 237.798 434.323 237.463C434.179 237.127 433.834 236.96 433.289 236.96C432.743 236.96 432.384 237.141 432.212 237.503C432.039 237.852 431.953 238.341 431.953 238.971V246.636C431.953 247.28 432.039 247.776 432.212 248.125C432.398 248.46 432.757 248.628 433.289 248.628C433.82 248.628 434.157 248.46 434.301 248.125C434.459 247.776 434.538 247.28 434.538 246.636V244.926H438.307V246.334C438.307 247.863 437.927 249.057 437.166 249.915C436.405 250.76 435.112 251.183 433.289 251.183Z" fill="white"/>
<path d="M445.425 251.183C443.544 251.183 442.202 250.733 441.398 249.835C440.594 248.923 440.191 247.582 440.191 245.811V239.756C440.191 237.986 440.594 236.658 441.398 235.773C442.202 234.874 443.544 234.425 445.425 234.425C447.321 234.425 448.671 234.874 449.475 235.773C450.293 236.671 450.703 237.999 450.703 239.756V245.811C450.703 247.582 450.293 248.923 449.475 249.835C448.671 250.733 447.321 251.183 445.425 251.183ZM445.425 248.628C445.971 248.628 446.33 248.46 446.502 248.125C446.675 247.776 446.761 247.307 446.761 246.717V238.871C446.761 238.267 446.675 237.798 446.502 237.463C446.33 237.127 445.971 236.96 445.425 236.96C444.908 236.96 444.564 237.134 444.392 237.483C444.219 237.818 444.133 238.281 444.133 238.871V246.717C444.133 247.307 444.212 247.776 444.37 248.125C444.528 248.46 444.88 248.628 445.425 248.628Z" fill="white"/>
<path d="M453.286 234.646H457.421L459.338 244.121L461.406 234.646H465.391L465.692 250.941H462.957L462.634 240.097L460.609 250.941H458.175L456.021 240.017L455.763 250.941H452.984L453.286 234.646Z" fill="white"/>
<path d="M468.238 234.646H472.094V250.941H468.238V234.646Z" fill="white"/>
<path d="M479.691 251.183C477.796 251.183 476.446 250.72 475.642 249.795C474.852 248.856 474.457 247.508 474.457 245.751V239.877C474.457 238.08 474.852 236.725 475.642 235.813C476.431 234.888 477.781 234.425 479.691 234.425C481.515 234.425 482.807 234.834 483.568 235.652C484.329 236.47 484.71 237.63 484.71 239.132V240.541H480.94V238.911C480.94 238.281 480.868 237.798 480.725 237.463C480.581 237.127 480.237 236.96 479.691 236.96C479.145 236.96 478.786 237.141 478.614 237.503C478.442 237.852 478.356 238.341 478.356 238.971V246.636C478.356 247.28 478.442 247.776 478.614 248.125C478.801 248.46 479.16 248.628 479.691 248.628C480.222 248.628 480.56 248.46 480.703 248.125C480.861 247.776 480.94 247.28 480.94 246.636V244.926H484.71V246.334C484.71 247.863 484.329 249.057 483.568 249.915C482.807 250.76 481.515 251.183 479.691 251.183Z" fill="white"/>
<path d="M492.344 234.646H496.889C498.023 234.646 498.985 234.76 499.775 234.988C500.579 235.202 501.225 235.625 501.713 236.255C502.201 236.885 502.446 237.77 502.446 238.91C502.446 239.876 502.223 240.627 501.778 241.164C501.333 241.7 500.701 242.042 499.882 242.19C500.888 242.31 501.656 242.706 502.187 243.377C502.718 244.047 502.984 244.959 502.984 246.113C502.984 249.331 501.225 250.941 497.707 250.941H492.344V234.646ZM496.953 241.164C497.772 241.164 498.324 240.989 498.612 240.641C498.913 240.292 499.064 239.749 499.064 239.011C499.064 238.367 498.877 237.884 498.504 237.563C498.131 237.227 497.585 237.06 496.867 237.06H496.199V241.164H496.953ZM497.018 248.426C497.836 248.426 498.411 248.238 498.741 247.863C499.086 247.474 499.258 246.87 499.258 246.052C499.258 245.127 499.086 244.476 498.741 244.101C498.411 243.725 497.829 243.538 496.996 243.538H496.199V248.426H497.018Z" fill="white"/>
<path d="M510.004 251.183C508.122 251.183 506.78 250.733 505.976 249.835C505.172 248.923 504.77 247.582 504.77 245.811V239.756C504.77 237.986 505.172 236.658 505.976 235.773C506.78 234.874 508.122 234.425 510.004 234.425C511.899 234.425 513.249 234.874 514.053 235.773C514.871 236.671 515.281 237.999 515.281 239.756V245.811C515.281 247.582 514.871 248.923 514.053 249.835C513.249 250.733 511.899 251.183 510.004 251.183ZM510.004 248.628C510.549 248.628 510.908 248.46 511.081 248.125C511.253 247.776 511.339 247.307 511.339 246.717V238.871C511.339 238.267 511.253 237.798 511.081 237.463C510.908 237.127 510.549 236.96 510.004 236.96C509.487 236.96 509.142 237.134 508.97 237.483C508.797 237.818 508.711 238.281 508.711 238.871V246.717C508.711 247.307 508.79 247.776 508.948 248.125C509.106 248.46 509.458 248.628 510.004 248.628Z" fill="white"/>
<path d="M519.53 242.17L516.299 234.646H519.939L521.856 239.051L523.407 234.646H526.616L523.558 243.115L526.961 250.941H523.343L521.21 246.072L519.336 250.941H516.148L519.53 242.17Z" fill="white"/>
<path d="M528.074 247.843H531.391V250.941H528.074V247.843Z" fill="white"/>
<mask id="mask0_5985_2736" style="mask-type:alpha" maskUnits="userSpaceOnUse" x="428" y="234" width="104" height="18">
<path d="M433.289 251.183C431.393 251.183 430.043 250.72 429.239 249.795C428.45 248.856 428.055 247.508 428.055 245.751V239.877C428.055 238.08 428.45 236.725 429.239 235.813C430.029 234.888 431.379 234.425 433.289 234.425C435.112 234.425 436.405 234.834 437.166 235.652C437.927 236.47 438.307 237.63 438.307 239.132V240.541H434.538V238.911C434.538 238.281 434.466 237.798 434.323 237.463C434.179 237.127 433.834 236.96 433.289 236.96C432.743 236.96 432.384 237.141 432.212 237.503C432.039 237.852 431.953 238.341 431.953 238.971V246.636C431.953 247.28 432.039 247.776 432.212 248.125C432.398 248.46 432.757 248.628 433.289 248.628C433.82 248.628 434.157 248.46 434.301 248.125C434.459 247.776 434.538 247.28 434.538 246.636V244.926H438.307V246.334C438.307 247.863 437.927 249.057 437.166 249.915C436.405 250.76 435.112 251.183 433.289 251.183Z" fill="white"/>
<path d="M445.425 251.183C443.544 251.183 442.202 250.733 441.398 249.835C440.594 248.923 440.191 247.582 440.191 245.811V239.756C440.191 237.986 440.594 236.658 441.398 235.773C442.202 234.874 443.544 234.425 445.425 234.425C447.321 234.425 448.671 234.874 449.475 235.773C450.293 236.671 450.703 237.999 450.703 239.756V245.811C450.703 247.582 450.293 248.923 449.475 249.835C448.671 250.733 447.321 251.183 445.425 251.183ZM445.425 248.628C445.971 248.628 446.33 248.46 446.502 248.125C446.675 247.776 446.761 247.307 446.761 246.717V238.871C446.761 238.267 446.675 237.798 446.502 237.463C446.33 237.127 445.971 236.96 445.425 236.96C444.908 236.96 444.564 237.134 444.392 237.483C444.219 237.818 444.133 238.281 444.133 238.871V246.717C444.133 247.307 444.212 247.776 444.37 248.125C444.528 248.46 444.88 248.628 445.425 248.628Z" fill="white"/>
<path d="M453.286 234.646H457.421L459.338 244.122L461.406 234.646H465.391L465.692 250.942H462.957L462.634 240.098L460.609 250.942H458.175L456.021 240.018L455.763 250.942H452.984L453.286 234.646Z" fill="white"/>
<path d="M468.234 234.646H472.09V250.942H468.234V234.646Z" fill="white"/>
<path d="M479.691 251.183C477.796 251.183 476.446 250.72 475.642 249.795C474.852 248.856 474.457 247.508 474.457 245.751V239.877C474.457 238.08 474.852 236.725 475.642 235.813C476.431 234.888 477.781 234.425 479.691 234.425C481.515 234.425 482.807 234.834 483.568 235.652C484.329 236.47 484.71 237.63 484.71 239.132V240.541H480.94V238.911C480.94 238.281 480.868 237.798 480.725 237.463C480.581 237.127 480.237 236.96 479.691 236.96C479.145 236.96 478.786 237.141 478.614 237.503C478.442 237.852 478.356 238.341 478.356 238.971V246.636C478.356 247.28 478.442 247.776 478.614 248.125C478.801 248.46 479.16 248.628 479.691 248.628C480.222 248.628 480.56 248.46 480.703 248.125C480.861 247.776 480.94 247.28 480.94 246.636V244.926H484.71V246.334C484.71 247.863 484.329 249.057 483.568 249.915C482.807 250.76 481.515 251.183 479.691 251.183Z" fill="white"/>
<path d="M492.34 234.646H496.885C498.019 234.646 498.981 234.76 499.771 234.988C500.575 235.203 501.221 235.626 501.709 236.256C502.198 236.886 502.442 237.771 502.442 238.911C502.442 239.877 502.219 240.628 501.774 241.165C501.329 241.701 500.697 242.043 499.879 242.191C500.884 242.311 501.652 242.707 502.183 243.378C502.714 244.048 502.98 244.96 502.98 246.114C502.98 249.332 501.221 250.942 497.703 250.942H492.34V234.646ZM496.949 241.165C497.768 241.165 498.32 240.99 498.608 240.642C498.909 240.293 499.06 239.75 499.06 239.012C499.06 238.368 498.873 237.885 498.5 237.564C498.127 237.228 497.581 237.061 496.863 237.061H496.195V241.165H496.949ZM497.014 248.427C497.832 248.427 498.407 248.239 498.737 247.864C499.082 247.475 499.254 246.871 499.254 246.053C499.254 245.128 499.082 244.477 498.737 244.102C498.407 243.726 497.825 243.538 496.992 243.538H496.195V248.427H497.014Z" fill="white"/>
<path d="M510 251.183C508.119 251.183 506.776 250.733 505.972 249.835C505.168 248.923 504.766 247.582 504.766 245.811V239.756C504.766 237.986 505.168 236.658 505.972 235.773C506.776 234.874 508.119 234.425 510 234.425C511.895 234.425 513.245 234.874 514.049 235.773C514.867 236.671 515.277 237.999 515.277 239.756V245.811C515.277 247.582 514.867 248.923 514.049 249.835C513.245 250.733 511.895 251.183 510 251.183ZM510 248.628C510.545 248.628 510.904 248.46 511.077 248.125C511.249 247.776 511.335 247.307 511.335 246.717V238.871C511.335 238.267 511.249 237.798 511.077 237.463C510.904 237.127 510.545 236.96 510 236.96C509.483 236.96 509.138 237.134 508.966 237.483C508.793 237.818 508.707 238.281 508.707 238.871V246.717C508.707 247.307 508.786 247.776 508.944 248.125C509.102 248.46 509.454 248.628 510 248.628Z" fill="white"/>
<path d="M519.526 242.17L516.295 234.646H519.935L521.852 239.052L523.403 234.646H526.613L523.554 243.116L526.957 250.942H523.339L521.206 246.073L519.332 250.942H516.145L519.526 242.17Z" fill="white"/>
<path d="M528.07 247.844H531.387V250.942H528.07V247.844Z" fill="white"/>
</mask>
<g mask="url(#mask0_5985_2736)">
<path d="M532.428 232.941H491.617V252H532.428V232.941Z" fill="#10B981"/>
</g>
</svg>
